# Blender v2.69 (sub 0) OBJ File: ''
# www.blender.org
o Cube.002
v 0.500000 -0.000000 0.499999
v -0.500000 -0.000000 0.500000
v -0.500000 0.000000 -0.500000
v 0.499999 0.000000 -0.500000
v 0.500000 -0.000000 0.197471
v 0.042799 -0.124501 0.042525
vt 0.013018 0.997576
vt 0.539174 0.533022
vt 0.996069 0.702712
vt 0.000100 0.000100
vt 0.999339 0.000122
vt 0.995367 0.999900
vn -0.092661 -0.989759 0.108590
vn 0.037538 -0.996124 0.079196
vn 0.130152 -0.988078 0.082232
vn -0.113241 -0.987095 -0.113225
vn 0.119591 -0.984893 -0.125236
vn -0.000000 -1.000000 -0.000000
s 1
f 2/1/1 6/2/2 5/3/3
f 6/2/2 3/4/4 4/5/5
f 2/1/1 3/4/4 6/2/2
f 5/3/3 6/2/2 4/5/5
f 1/6/6 2/1/1 5/3/3
