# Blender v2.69 (sub 0) OBJ File: ''
# www.blender.org
o Grid.001
v 0.247290 -0.025022 -0.176837
v 0.127602 0.335479 -0.119905
v 0.246662 1.654101 -0.268963
v -0.215447 -0.025022 -0.264853
v -0.141582 0.395188 -0.242536
v -0.161139 1.654101 -0.372544
v -0.500000 -0.025022 -0.049857
v -0.500000 0.335479 0.109819
v -0.500000 1.654101 -0.080447
v -0.500000 1.328023 0.069222
v 0.137150 1.218143 -0.113980
v -0.156007 1.255618 -0.238717
v 0.069656 -0.025022 0.500000
v -0.090020 0.335479 0.500000
v 0.092974 1.654101 0.500000
v 0.265614 -0.025022 0.256389
v 0.205497 0.395188 0.202214
v 0.306363 1.654101 0.196409
v -0.026523 1.348638 0.500000
v 0.172536 1.255618 0.201526
vt 0.002772 0.860970
vt 0.006661 0.304390
vt 0.468628 0.334568
vt 0.498449 0.839310
vt 0.004348 0.001692
vt 0.501147 0.002027
vt 0.994038 0.305878
vt 0.988508 0.853943
vt 0.007719 0.998060
vt 0.446538 0.998359
vt 0.994229 0.997921
vt 0.991881 0.001537
vn 0.778457 -0.155948 0.608018
vn 0.743085 0.118601 0.658604
vn 0.957305 0.121555 0.262185
vn 0.949828 -0.155309 0.271462
vn 0.704365 0.244541 0.666386
vn 0.914446 0.258461 0.311426
vn 0.751183 0.116459 -0.649678
vn 0.781030 -0.179693 -0.598041
vn 0.773129 -0.274063 0.571980
vn 0.924064 -0.304888 0.230541
vn 0.694509 -0.377587 -0.612442
vn 0.758635 0.201872 -0.619452
vn -0.163549 0.086550 -0.982727
vn -0.208777 -0.197974 -0.957701
vn -0.263307 0.202353 -0.943251
vn -0.675920 0.104532 -0.729524
vn -0.673510 -0.151357 -0.723516
vn -0.655854 0.229682 -0.719098
vn -0.193280 -0.356475 -0.914094
vn -0.650150 -0.280838 -0.705999
s 1
f 19/1/1 14/2/2 17/3/3 20/4/4
f 14/2/2 13/5/5 16/6/6 17/3/3
f 20/4/4 17/3/3 2/7/7 11/8/8
f 15/9/9 19/1/1 20/4/4 18/10/10
f 18/10/10 20/4/4 11/8/8 3/11/11
f 17/3/3 16/6/6 1/12/12 2/7/7
f 11/1/8 2/2/7 5/3/13 12/4/14
f 2/2/7 1/5/12 4/6/15 5/3/13
f 12/4/14 5/3/13 8/7/16 10/8/17
f 5/3/13 4/6/15 7/12/18 8/7/16
f 3/9/11 11/1/8 12/4/14 6/10/19
f 6/10/19 12/4/14 10/8/17 9/11/20
