# Blender v2.76 (sub 0) OBJ File: ''
# www.blender.org
o Sphere
v -0.031220 0.258225 0.022683
v -0.011925 0.258225 0.036701
v 0.011925 0.258225 0.036701
v 0.031220 0.258225 0.022683
v 0.038590 0.258225 0.000000
v 0.031220 0.258225 -0.022682
v 0.011925 0.258225 -0.036701
v -0.011925 0.258225 -0.036701
v -0.031220 0.258225 -0.022682
v -0.038590 0.258225 0.000000
v -0.051738 0.002003 0.000000
v -0.089613 0.035950 0.000000
v -0.072499 0.035950 -0.052673
v -0.041857 0.002003 -0.030411
v -0.103477 0.082321 0.000000
v -0.083714 0.082321 -0.060822
v -0.027692 0.035950 -0.085227
v -0.015988 0.002003 -0.049206
v -0.031976 0.082321 -0.098412
v -0.072499 0.128693 -0.052673
v -0.027692 0.128693 -0.085227
v -0.033874 0.165936 -0.024611
v -0.012939 0.165936 -0.039821
v 0.027692 0.035950 -0.085227
v 0.015988 0.002003 -0.049206
v 0.031976 0.082321 -0.098412
v 0.027692 0.128693 -0.085227
v 0.012939 0.165936 -0.039821
v 0.072499 0.035950 -0.052673
v 0.041857 0.002003 -0.030411
v 0.083714 0.082321 -0.060822
v 0.072499 0.128693 -0.052673
v 0.033874 0.165936 -0.024611
v 0.089613 0.035950 0.000000
v 0.051738 0.002003 0.000000
v 0.103476 0.082321 0.000000
v 0.089613 0.128693 0.000000
v 0.041870 0.165936 0.000000
v 0.072499 0.035950 0.052673
v 0.041857 0.002003 0.030411
v 0.083714 0.082321 0.060822
v 0.072499 0.128693 0.052673
v 0.033874 0.165936 0.024611
v 0.027692 0.035950 0.085227
v 0.015988 0.002003 0.049206
v 0.031976 0.082321 0.098412
v 0.027692 0.128693 0.085227
v 0.012939 0.165936 0.039821
v -0.027692 0.035950 0.085227
v -0.015988 0.002003 0.049206
v -0.031976 0.082321 0.098412
v -0.027692 0.128693 0.085227
v -0.012939 0.165936 0.039821
v -0.072499 0.035950 0.052673
v -0.041857 0.002003 0.030411
v -0.083714 0.082321 0.060822
v -0.072499 0.128693 0.052673
v -0.033874 0.165936 0.024611
v -0.028941 0.219458 0.000000
v -0.023414 0.219458 0.017011
v -0.089613 0.128693 0.000000
v -0.041871 0.165936 0.000000
v -0.023414 0.219458 -0.017011
v -0.008943 0.219458 0.027524
v -0.008943 0.219458 -0.027524
v 0.008943 0.219458 0.027524
v 0.008943 0.219458 -0.027524
v 0.023413 0.219458 0.017011
v 0.023413 0.219458 -0.017011
v 0.028941 0.219458 0.000000
vt 0.460653 0.831498
vt 0.504263 0.816517
vt 0.547872 0.831498
vt 0.574824 0.870719
vt 0.574824 0.919198
vt 0.547872 0.958419
vt 0.504263 0.973400
vt 0.460653 0.958419
vt 0.433701 0.919198
vt 0.433701 0.870718
vt 0.836499 0.012638
vt 0.836771 0.177087
vt 0.722305 0.179293
vt 0.726736 0.009295
vt 0.840260 0.327415
vt 0.726919 0.319498
vt 0.626473 0.181064
vt 0.633167 0.008585
vt 0.628417 0.317520
vt 0.742021 0.476227
vt 0.644598 0.474827
vt 0.750167 0.625180
vt 0.649129 0.630694
vt 0.544778 0.189398
vt 0.543597 0.007607
vt 0.546782 0.318737
vt 0.554767 0.474008
vt 0.566242 0.626196
vt 0.478558 0.179292
vt 0.462334 0.007885
vt 0.479188 0.311443
vt 0.487070 0.475397
vt 0.483884 0.628102
vt 0.391819 0.184371
vt 0.380508 0.006528
vt 0.394373 0.315077
vt 0.402597 0.471503
vt 0.408280 0.628896
vt 0.302438 0.188290
vt 0.290449 0.007498
vt 0.303367 0.315927
vt 0.319215 0.477973
vt 0.320828 0.629366
vt 0.206693 0.190828
vt 0.206055 0.008436
vt 0.210155 0.315804
vt 0.219674 0.485363
vt 0.223752 0.629817
vt 0.125813 0.184234
vt 0.116649 0.006804
vt 0.125007 0.315854
vt 0.126581 0.475799
vt 0.132548 0.627531
vt 0.007229 0.178334
vt 0.003980 0.007515
vt 0.008687 0.316409
vt 0.009989 0.475387
vt 0.007760 0.634152
vt 0.850450 0.825956
vt 0.991973 0.831221
vt 0.992850 0.991443
vt 0.842390 0.990990
vt 0.849931 0.476282
vt 0.849633 0.629045
vt 0.851583 0.826686
vt 0.750843 0.827625
vt 0.004532 0.830266
vt 0.120449 0.831350
vt 0.132605 0.986013
vt 0.002881 0.992321
vt 0.650641 0.833431
vt 0.224280 0.828968
vt 0.233565 0.990300
vt 0.566701 0.830989
vt 0.315584 0.828933
vt 0.337584 0.988498
vt 0.479678 0.827537
vt 0.397767 0.828436
vt 0.412719 0.986790
vt 0.485169 0.990037
vt 0.547080 0.994791
vt 0.651356 0.994034
vt 0.754726 0.992709
vt 0.845372 0.993065
vt 0.991052 0.006417
vt 0.990673 0.177275
vt 0.836119 0.177992
vt 0.836660 0.010410
vt 0.988218 0.309813
vt 0.835903 0.324491
vt 0.988362 0.472182
vt 0.851070 0.475609
vt 0.989082 0.626300
vt 0.850376 0.625934
vn 0.000000 1.000000 -0.000000
vn -0.667400 -0.744700 0.000000
vn -0.858600 -0.512700 0.000000
vn -0.694600 -0.512700 -0.504600
vn -0.540000 -0.744700 -0.392300
vn -1.000000 -0.000000 0.000000
vn -0.809000 0.000000 -0.587800
vn -0.265300 -0.512700 -0.816500
vn -0.206200 -0.744700 -0.634800
vn -0.309000 0.000000 -0.951100
vn -0.682100 0.537800 -0.495500
vn -0.260500 0.537800 -0.801800
vn -0.662600 0.573700 -0.481400
vn -0.253100 0.573700 -0.779000
vn 0.265300 -0.512700 -0.816500
vn 0.206200 -0.744700 -0.634800
vn 0.309000 0.000000 -0.951100
vn 0.260500 0.537800 -0.801800
vn 0.253100 0.573700 -0.779000
vn 0.694600 -0.512700 -0.504600
vn 0.540000 -0.744700 -0.392300
vn 0.809000 0.000000 -0.587800
vn 0.682100 0.537800 -0.495500
vn 0.662600 0.573700 -0.481400
vn 0.858600 -0.512700 -0.000000
vn 0.667400 -0.744700 -0.000000
vn 1.000000 0.000000 -0.000000
vn 0.843100 0.537800 -0.000000
vn 0.819100 0.573700 -0.000000
vn 0.694600 -0.512700 0.504600
vn 0.540000 -0.744700 0.392300
vn 0.809000 0.000000 0.587800
vn 0.682100 0.537800 0.495500
vn 0.662600 0.573700 0.481400
vn 0.265300 -0.512700 0.816500
vn 0.206200 -0.744700 0.634800
vn 0.309000 -0.000000 0.951100
vn 0.260500 0.537800 0.801800
vn 0.253100 0.573700 0.779000
vn -0.265300 -0.512700 0.816500
vn -0.206200 -0.744700 0.634800
vn -0.309000 -0.000000 0.951100
vn -0.260500 0.537800 0.801800
vn -0.253100 0.573700 0.779000
vn -0.694600 -0.512700 0.504600
vn -0.540000 -0.744700 0.392300
vn -0.809000 -0.000000 0.587800
vn -0.682100 0.537800 0.495500
vn -0.662600 0.573700 0.481400
vn -1.000000 -0.003600 0.000000
vn -0.809000 -0.003600 0.587800
vn -0.785100 -0.241500 0.570400
vn -0.970400 -0.241500 0.000000
vn -0.843100 0.537800 -0.000000
vn -0.819100 0.573700 -0.000000
vn -0.809000 -0.003600 -0.587800
vn -0.309000 -0.003600 0.951000
vn -0.299900 -0.241500 0.922900
vn -0.309000 -0.003600 -0.951100
vn 0.309000 -0.003600 0.951100
vn 0.299900 -0.241500 0.922900
vn 0.309000 -0.003600 -0.951000
vn 0.809000 -0.003600 0.587800
vn 0.785100 -0.241500 0.570400
vn 0.809000 -0.003600 -0.587800
vn 1.000000 -0.003600 -0.000000
vn 0.970400 -0.241500 -0.000000
vn 0.785100 -0.241500 -0.570400
vn 0.299900 -0.241500 -0.922900
vn -0.299900 -0.241500 -0.922900
vn -0.785100 -0.241500 -0.570400
s off
f 1/1/1 2/2/1 3/3/1 4/4/1 5/5/1 6/6/1 7/7/1 8/8/1 9/9/1 10/10/1
s 1
f 11/11/2 12/12/3 13/13/4 14/14/5
f 12/12/3 15/15/6 16/16/7 13/13/4
f 14/14/5 13/13/4 17/17/8 18/18/9
f 13/13/4 16/16/7 19/19/10 17/17/8
f 16/16/7 20/20/11 21/21/12 19/19/10
f 20/20/11 22/22/13 23/23/14 21/21/12
f 18/18/9 17/17/8 24/24/15 25/25/16
f 17/17/8 19/19/10 26/26/17 24/24/15
f 19/19/10 21/21/12 27/27/18 26/26/17
f 21/21/12 23/23/14 28/28/19 27/27/18
f 25/25/16 24/24/15 29/29/20 30/30/21
f 24/24/15 26/26/17 31/31/22 29/29/20
f 26/26/17 27/27/18 32/32/23 31/31/22
f 27/27/18 28/28/19 33/33/24 32/32/23
f 30/30/21 29/29/20 34/34/25 35/35/26
f 29/29/20 31/31/22 36/36/27 34/34/25
f 31/31/22 32/32/23 37/37/28 36/36/27
f 32/32/23 33/33/24 38/38/29 37/37/28
f 35/35/26 34/34/25 39/39/30 40/40/31
f 34/34/25 36/36/27 41/41/32 39/39/30
f 36/36/27 37/37/28 42/42/33 41/41/32
f 37/37/28 38/38/29 43/43/34 42/42/33
f 40/40/31 39/39/30 44/44/35 45/45/36
f 39/39/30 41/41/32 46/46/37 44/44/35
f 41/41/32 42/42/33 47/47/38 46/46/37
f 42/42/33 43/43/34 48/48/39 47/47/38
f 45/45/36 44/44/35 49/49/40 50/50/41
f 44/44/35 46/46/37 51/51/42 49/49/40
f 46/46/37 47/47/38 52/52/43 51/51/42
f 47/47/38 48/48/39 53/53/44 52/52/43
f 50/50/41 49/49/40 54/54/45 55/55/46
f 49/49/40 51/51/42 56/56/47 54/54/45
f 51/51/42 52/52/43 57/57/48 56/56/47
f 52/52/43 53/53/44 58/58/49 57/57/48
f 59/59/50 60/60/51 1/61/52 10/62/53
f 15/15/6 61/63/54 20/20/11 16/16/7
f 61/63/54 62/64/55 22/22/13 20/20/11
f 22/22/13 62/64/55 59/65/50 63/66/56
f 60/67/51 64/68/57 2/69/58 1/70/52
f 23/23/14 22/22/13 63/66/56 65/71/59
f 64/68/57 66/72/60 3/73/61 2/69/58
f 28/28/19 23/23/14 65/71/59 67/74/62
f 66/72/60 68/75/63 4/76/64 3/73/61
f 33/33/24 28/28/19 67/74/62 69/77/65
f 68/75/63 70/78/66 5/79/67 4/76/64
f 38/38/29 33/33/24 69/77/65 70/78/66
f 70/78/66 69/77/65 6/80/68 5/79/67
f 43/43/34 38/38/29 70/78/66 68/75/63
f 69/77/65 67/74/62 7/81/69 6/80/68
f 48/48/39 43/43/34 68/75/63 66/72/60
f 67/74/62 65/71/59 8/82/70 7/81/69
f 53/53/44 48/48/39 66/72/60 64/68/57
f 65/71/59 63/66/56 9/83/71 8/82/70
f 58/58/49 53/53/44 64/68/57 60/67/51
f 63/66/56 59/65/50 10/84/53 9/83/71
f 55/85/46 54/86/45 12/87/3 11/88/2
f 54/86/45 56/89/47 15/90/6 12/87/3
f 56/89/47 57/91/48 61/92/54 15/90/6
f 57/91/48 58/93/49 62/94/55 61/92/54
f 62/94/55 58/93/49 60/60/51 59/59/50
