# Blender v2.69 (sub 0) OBJ File: ''
# www.blender.org
o skybox
v 1.000000 -1.000000 1.000000
v -1.000000 -1.000000 1.000000
v -1.000000 1.000000 1.000000
v 0.999999 1.000000 1.000001
v -1.000000 -1.000000 1.000000
v -1.000000 -1.000000 -1.000000
v -1.000000 1.000000 -1.000000
v -1.000000 1.000000 1.000000
v 1.000000 1.000000 -0.999999
v 0.999999 1.000000 1.000001
v -1.000000 1.000000 1.000000
v -1.000000 1.000000 -1.000000
v 1.000000 -1.000000 -1.000000
v 1.000000 -1.000000 1.000000
v 0.999999 1.000000 1.000001
v 1.000000 1.000000 -0.999999
v 1.000000 1.000000 -0.999999
v -1.000000 1.000000 -1.000000
v -1.000000 -1.000000 -1.000000
v 1.000000 -1.000000 -1.000000
vt 0.000977 0.333984
vt 0.499023 0.333984
vt 0.499023 0.666016
vt 0.000977 0.666016
vt 0.500977 0.333984
vt 0.999023 0.333984
vt 0.999023 0.666016
vt 0.500977 0.666016
vt 0.999023 0.999349
vt 0.500977 0.999349
vt 0.500977 0.667318
vt 0.999023 0.667318
vt 0.000977 0.000651
vt 0.499023 0.000651
vt 0.499023 0.332682
vt 0.000977 0.332682
vt 0.499023 0.999349
vt 0.000977 0.999349
vt 0.000977 0.667318
vt 0.499023 0.667318
vn 0.000000 0.000000 -1.000000
vn 1.000000 0.000000 0.000000
vn 0.000000 -1.000000 -0.000000
vn -1.000000 -0.000000 -0.000000
vn -0.000000 -0.000000 1.000000
s off
f 1/1/1 2/2/1 3/3/1 4/4/1
f 5/5/2 6/6/2 7/7/2 8/8/2
f 9/9/3 10/10/3 11/11/3 12/12/3
f 13/13/4 14/14/4 15/15/4 16/16/4
f 17/17/5 18/18/5 19/19/5 20/20/5
