# Blender v2.69 (sub 0) OBJ File: ''
# www.blender.org
mtllib wall_bulwark.mtl
o Cube.002
v 0.092329 0.231121 -0.499999
v 0.092329 0.230903 0.500000
v 0.092329 -0.000000 0.500000
v 0.092329 0.000000 -0.499999
v 0.000000 1.290920 0.500000
v 0.000000 1.290920 -0.500000
v 0.197618 1.341339 -0.500000
v 0.197618 1.341339 0.500000
v 0.197618 1.469919 -0.107683
v 0.197618 1.470401 -0.333853
v -0.003250 1.470401 -0.333853
v -0.003250 1.469919 -0.107683
v 0.197618 1.611646 -0.117809
v -0.003250 1.611646 -0.117809
v 0.197618 1.611646 -0.323964
v -0.003250 1.611646 -0.323964
v 0.197618 1.469316 0.152876
v 0.197618 1.611646 0.162849
v -0.003250 1.611646 0.162849
v -0.003250 1.469316 0.152876
v 0.197618 1.469340 0.352361
v -0.003250 1.469340 0.352361
v 0.197618 1.611646 0.341935
v -0.003250 1.611646 0.341935
v 0.197618 1.611646 -0.500000
v -0.003250 1.611646 -0.500000
v 0.197618 1.611646 0.500000
v -0.003250 1.611646 0.500000
v 0.000000 0.277550 0.500000
v 0.000000 0.278255 -0.499999
vt 0.993586 0.105454
vt 0.005108 0.105064
vt 0.005211 -0.000522
vt 0.993689 -0.000259
vt 0.004855 0.679815
vt 0.993334 0.679923
vt 0.993297 0.795038
vt 0.004819 0.794931
vt 0.494198 0.813917
vt 0.597328 0.811856
vt 0.601718 0.888798
vt 0.498588 0.890859
vt 0.294912 0.948965
vt 0.294912 0.885985
vt 0.414289 0.885985
vt 0.414289 0.948965
vt 0.294912 0.885907
vt 0.294912 0.823147
vt 0.414289 0.823147
vt 0.414289 0.885907
vt 0.119426 0.884750
vt 0.119426 0.821507
vt 0.238803 0.821507
vt 0.238803 0.884750
vt 0.597499 0.811853
vt 0.700112 0.809802
vt 0.704503 0.886744
vt 0.601889 0.888795
vt 0.119397 0.948074
vt 0.119426 0.884828
vt 0.238803 0.884858
vt 0.238774 0.948105
vt 0.366490 0.862961
vt 0.372624 0.970466
vt 0.242607 0.973064
vt 0.236473 0.865559
vt 0.497502 0.874831
vt 0.502811 0.967865
vt 0.372795 0.970463
vt 0.367486 0.877429
vt 0.498592 0.890919
vt 0.627410 0.888345
vt 0.631800 0.965287
vt 0.502982 0.967861
vt 0.005050 0.177448
vt 0.993527 0.177967
vt 0.633854 0.889369
vt 0.641121 0.996071
vt 0.354656 0.994732
vt 0.350106 0.891182
vt 0.218220 0.892589
vt 0.213911 0.995559
vt 0.005522 0.996027
vt 0.006285 0.805503
vt 0.988718 0.803763
vt 0.989021 0.996093
vt 0.759196 0.993914
vt 0.766010 0.888371
vn 1.000000 0.000000 0.000000
vn 0.247214 -0.968961 -0.000000
vn 0.000000 0.999998 0.002131
vn 0.000000 -0.071265 -0.997457
vn 0.000000 -0.069842 0.997558
vn 0.000000 -0.069898 0.997554
vn 0.000000 1.000000 -0.000120
vn 0.000000 -0.073068 -0.997327
vn 0.000000 1.000000 0.000000
vn 0.000000 1.000000 0.000001
vn 0.452813 0.891605 0.000412
usemtl Material.002
s off
f 1/1/1 2/2/1 3/3/1 4/4/1
f 5/5/2 6/6/2 7/7/2 8/8/2
f 9/9/3 10/10/3 11/11/3 12/12/3
f 13/13/4 9/14/4 12/15/4 14/16/4
f 10/17/5 15/18/5 16/19/5 11/20/5
f 17/21/6 18/22/6 19/23/6 20/24/6
f 21/25/7 17/26/7 20/27/7 22/28/7
f 23/29/8 21/30/8 22/31/8 24/32/8
f 18/33/9 13/34/9 14/35/9 19/36/9
f 15/37/10 25/38/10 26/39/10 16/40/10
f 27/41/10 23/42/10 24/43/10 28/44/10
f 6/6/1 5/5/1 29/45/1 30/46/1
f 2/2/11 1/1/11 30/46/11 29/45/11
f 9/47/1 13/48/1 18/49/1 17/50/1 21/51/1 23/52/1 27/53/1 8/54/1 7/55/1 25/56/1 15/57/1 10/58/1
