# Blender v2.69 (sub 0) OBJ File: ''
# www.blender.org
mtllib wall_house.mtl
o Cube.001
v 0.000000 1.100760 -0.500000
v 0.000000 1.100760 0.500000
v 0.000000 0.152016 0.500000
v 0.000000 0.152016 -0.499999
v 0.048491 0.152016 0.500000
v 0.048491 0.152016 -0.499999
v 0.048491 0.007608 0.500000
v 0.048491 0.007608 -0.499999
v 0.269780 1.100760 -0.500000
v 0.269780 1.100760 0.500000
v 0.269780 1.167171 -0.500000
v 0.269780 1.167170 0.500000
v -0.001157 1.651511 -0.500000
v -0.001157 1.651511 0.500000
vt 0.997196 0.495173
vt -0.001717 0.495173
vt -0.001717 0.040068
vt 0.997195 0.040068
vt -0.001718 0.021673
vt 0.997196 0.021673
vt -0.001718 0.000632
vt 0.997196 0.000632
vt 0.997196 0.743451
vt -0.001717 0.743451
vt 0.997196 0.767081
vt -0.001717 0.767080
vt 0.997195 0.998641
vt -0.001717 0.998640
vn 1.000000 0.000000 0.000000
vn 0.000000 1.000000 0.000000
vn 0.000000 -1.000000 -0.000000
vn 0.872731 0.488201 0.000000
usemtl Material.002
s off
f 1/1/1 2/2/1 3/3/1 4/4/1
f 4/4/2 3/3/2 5/5/2 6/6/2
f 6/6/1 5/5/1 7/7/1 8/8/1
f 2/2/3 1/1/3 9/9/3 10/10/3
f 10/10/1 9/9/1 11/11/1 12/12/1
f 12/12/4 11/11/4 13/13/4 14/14/4
