# Blender v2.69 (sub 0) OBJ File: ''
# www.blender.org
o Grid.000_Grid.003
v 0.000000 1.348638 0.500000
v 0.000000 0.335479 0.500000
v 0.077895 0.395188 0.038463
v 0.044935 1.255618 -0.012311
v 0.159676 -0.025022 0.500000
v 0.071071 -0.025022 -0.000000
v 0.000000 0.335479 -0.500000
v 0.000000 1.350025 -0.500000
v 0.159676 -0.025022 -0.500000
v 0.149669 1.654101 0.500000
v 0.178762 1.654101 0.054308
v 0.149669 1.654101 -0.500000
vt 0.002772 0.860970
vt 0.006661 0.304390
vt 0.468628 0.334568
vt 0.498449 0.839310
vt 0.004348 0.001692
vt 0.501147 0.002027
vt 0.994038 0.305878
vt 0.988508 0.853943
vt 0.991881 0.001537
vt 0.007719 0.998060
vt 0.446538 0.998359
vt 0.994229 0.997921
vn 0.971966 -0.203482 0.117799
vn 0.991926 0.111994 0.059495
vn 0.995056 0.099185 0.004273
vn 0.986969 -0.160741 -0.003723
vn 0.981377 0.192090 0.000997
vn 0.981368 0.192139 -0.000021
vn 0.992488 0.108214 -0.057080
vn 0.973975 -0.198401 -0.109587
vn 0.981359 0.192182 -0.000929
vn 0.918607 -0.380156 0.107896
vn 0.926895 -0.375022 0.014945
vn 0.926026 -0.364301 -0.098795
s 1
f 1/1/1 2/2/2 3/3/3 4/4/4
f 2/2/2 5/5/5 6/6/6 3/3/3
f 4/4/4 3/3/3 7/7/7 8/8/8
f 3/3/3 6/6/6 9/9/9 7/7/7
f 10/10/10 1/1/1 4/4/4 11/11/11
f 11/11/11 4/4/4 8/8/8 12/12/12
