# Blender v2.69 (sub 0) OBJ File: ''
# www.blender.org
o Grid.000_Grid.003
v 0.000000 1.112540 0.500000
v 0.000000 0.335479 0.500000
v 0.077895 0.395188 0.038463
v 0.044935 1.019521 -0.012311
v 0.159676 -0.025022 0.500000
v 0.071071 -0.025022 -0.000000
v 0.000000 0.335479 -0.500000
v 0.000000 1.113928 -0.500000
v 0.159676 -0.025022 -0.500000
v 0.149669 1.418003 0.500000
v 0.178762 1.418004 0.054308
v 0.149669 1.418004 -0.500000
vt 0.002772 0.860970
vt 0.006661 0.304390
vt 0.468628 0.334568
vt 0.498449 0.839310
vt 0.004348 0.001692
vt 0.501147 0.002027
vt 0.994038 0.305878
vt 0.988508 0.853943
vt 0.991881 0.001537
vt 0.007719 0.998060
vt 0.446538 0.998359
vt 0.994229 0.997921
vn 0.972610 -0.200401 0.117767
vn 0.991558 0.115278 0.059355
vn 0.994720 0.102451 0.005066
vn 0.987487 -0.157445 -0.004608
vn 0.981377 0.192090 0.000997
vn 0.981368 0.192139 -0.000021
vn 0.992243 0.110485 -0.056986
vn 0.974403 -0.196302 -0.109561
vn 0.981359 0.192182 -0.000929
vn 0.918607 -0.380156 0.107896
vn 0.926895 -0.375022 0.014945
vn 0.926026 -0.364301 -0.098795
s 1
f 1/1/1 2/2/2 3/3/3 4/4/4
f 2/2/2 5/5/5 6/6/6 3/3/3
f 4/4/4 3/3/3 7/7/7 8/8/8
f 3/3/3 6/6/6 9/9/9 7/7/7
f 10/10/10 1/1/1 4/4/4 11/11/11
f 11/11/11 4/4/4 8/8/8 12/12/12
